<svg t="1690445631598" class="icon" viewBox="0 0 1024 1024" version="1.1" xmlns="http://www.w3.org/2000/svg" p-id="864" width="200" height="200"><path d="M352.56 168.56c12.76-2.28 22.2 8.24 30.24 16.44 26.04 29.16 44.56 63.92 64 97.6 63.52-15.08 130.6-13.08 194.32 0 17.32-34.36 33.6-69.68 56.92-100.44 5.96-6.36 12.4-15.8 22.04-15.16 10.36 13.24 10.6 31.16 15 46.8 6.76 25.64 9.56 52 15.36 77.84 27.56 163.6 53.96 327.6 70 492.8 1.2 14.48 2.68 29.16 0.68 43.64-3.92 5.68-11.04 5.8-17.12 7.04-18.44 3.68-37.32 2.76-55.96 4.16-43.84 5.28-88.16 1.16-132.04 5.56-53.32 0.72-106.64 0.56-159.96 0.2-66.48-5.56-134.52 1.56-199.76-14.6-35.52-1.6-74.24-7.76-100.48-34-28.2-25.16-37.72-66.8-29.28-102.8 7.28-33.64 34.88-60.6 66.92-71.48 10.96-4 26.12-4.16 32.84 7.04 3.08 10.88-7.96 17.08-15.2 22.56-15.84 10.68-33.16 22.16-40 40.96-6.4 22.04-1.4 48.36 16.56 63.76 19.92 17.8 48.12 19.88 73.56 21.4 10.32-118.32 25.52-236.2 41.56-353.84 10.52-72.64 20.64-145.44 36.36-217.16 3.56-12.96 5.32-27.2 13.44-38.32m68.24 232.2c-13.8 2.2-25.04 13.48-28 27-4 17.64 8.92 36.92 26.92 39.48 22.16 5.12 44.28-17.4 39.48-39.36-2.72-17.56-21.04-30.44-38.4-27.12m236.32 0.96c-24.48 8.44-28.48 46.2-6.84 60.04 20.12 15.4 53.52 0.28 53.56-25.52 3.24-24.84-24-44-46.72-34.52m-118.76 90.48c-5.4 4.72-11.28 8.8-17.28 12.76-5.4-1.76-10.8-3.68-16.08-5.8l-0.48 12.2c13 7.32 27.12 3.72 39.44-2.92 12.32 6.64 26.48 10.12 39.48 2.92-0.12-3.04-0.32-9.16-0.44-12.2-5.28 2.12-10.68 4.04-16.08 5.76-6-3.88-11.88-8-17.28-12.72-3.76-0.04-7.52-0.04-11.28 0z" fill="currentColor" p-id="865"></path></svg>