<svg t="1690448056741" class="icon" viewBox="0 0 1024 1024" version="1.1" xmlns="http://www.w3.org/2000/svg" p-id="1484" width="200" height="200"><path d="M512 320c-12.8 0-21.333333-8.533333-21.333333-21.333333V213.333333c0-34.133333 29.866667-64 64-64s64 29.866667 64 64c0 12.8 8.533333 21.333333 21.333333 21.333334s25.6-8.533333 25.6-21.333334V153.6c0-12.8 8.533333-21.333333 21.333333-21.333333s21.333333 8.533333 21.333334 21.333333V213.333333c0 34.133333-29.866667 64-64 64-38.4 0-68.266667-29.866667-68.266667-64 0-12.8-8.533333-21.333333-21.333333-21.333333s-21.333333 8.533333-21.333334 21.333333v85.333334c0 12.8-8.533333 21.333333-21.333333 21.333333z" fill="#D04C83" p-id="1485"></path><path d="M512 341.333333m-85.333333 0a85.333333 85.333333 0 1 0 170.666666 0 85.333333 85.333333 0 1 0-170.666666 0Z" fill="#4F2AB5" p-id="1486"></path><path d="M512 448c-59.733333 0-106.666667-46.933333-106.666667-106.666667s46.933333-106.666667 106.666667-106.666666 106.666667 46.933333 106.666667 106.666666-46.933333 106.666667-106.666667 106.666667z m0-170.666667c-34.133333 0-64 29.866667-64 64s29.866667 64 64 64 64-29.866667 64-64-29.866667-64-64-64z" fill="#301196" p-id="1487"></path><path d="M320 345.6h384c128 0 234.666667 106.666667 234.666667 234.666667v85.333333c0 128-106.666667 234.666667-234.666667 234.666667h-384c-128 0-234.666667-106.666667-234.666667-234.666667v-85.333333c0-132.266667 106.666667-234.666667 234.666667-234.666667z" fill="#4F2AB5" p-id="1488"></path><path d="M320 341.333333h384c128 0 234.666667 106.666667 234.666667 234.666667S832 810.666667 704 810.666667h-384c-128 0-234.666667-106.666667-234.666667-234.666667S192 341.333333 320 341.333333z" fill="#723FDB" p-id="1489"></path><path d="M704 832h-384c-140.8 0-256-115.2-256-256s115.2-256 256-256h384c140.8 0 256 115.2 256 256s-115.2 256-256 256z m-384-469.333333c-119.466667 0-213.333333 93.866667-213.333333 213.333333s93.866667 213.333333 213.333333 213.333333h384c119.466667 0 213.333333-93.866667 213.333333-213.333333s-93.866667-213.333333-213.333333-213.333333h-384z" fill="#301196" p-id="1490"></path><path d="M704 917.333333h-384c-140.8 0-256-115.2-256-256v-85.333333c0-140.8 115.2-256 256-256h384c140.8 0 256 115.2 256 256v85.333333c0 140.8-115.2 256-256 256z m-384-554.666666c-119.466667 0-213.333333 93.866667-213.333333 213.333333v85.333333c0 119.466667 93.866667 213.333333 213.333333 213.333334h384c119.466667 0 213.333333-93.866667 213.333333-213.333334v-85.333333c0-119.466667-93.866667-213.333333-213.333333-213.333333h-384z" fill="#301196" p-id="1491"></path><path d="M320 785.066667c-115.2 0-209.066667-93.866667-209.066667-209.066667s93.866667-209.066667 209.066667-209.066667h384c115.2 0 209.066667 93.866667 209.066667 209.066667s-93.866667 209.066667-209.066667 209.066667h-384z" fill="#7750E2" p-id="1492"></path><path d="M785.066667 469.333333l51.2 51.2c34.133333 34.133333 34.133333 85.333333 0 119.466667l-51.2 51.2c-34.133333 34.133333-85.333333 34.133333-119.466667 0L614.4 640c-34.133333-34.133333-34.133333-85.333333 0-119.466667l51.2-51.2c34.133333-34.133333 85.333333-34.133333 119.466667 0z" fill="#4F2AB5" p-id="1493"></path><path d="M725.333333 503.466667m-34.133333 0a34.133333 34.133333 0 1 0 68.266667 0 34.133333 34.133333 0 1 0-68.266667 0Z" fill="#EDC35B" p-id="1494"></path><path d="M725.333333 652.8m-34.133333 0a34.133333 34.133333 0 1 0 68.266667 0 34.133333 34.133333 0 1 0-68.266667 0Z" fill="#EDC35B" p-id="1495"></path><path d="M802.133333 576m-34.133333 0a34.133333 34.133333 0 1 0 68.266667 0 34.133333 34.133333 0 1 0-68.266667 0Z" fill="#EDC35B" p-id="1496"></path><path d="M648.533333 576m-34.133333 0a34.133333 34.133333 0 1 0 68.266667 0 34.133333 34.133333 0 1 0-68.266667 0Z" fill="#EDC35B" p-id="1497"></path><path d="M290.133333 708.266667c-29.866667 0-55.466667-25.6-59.733333-55.466667v-17.066667H213.333333c-29.866667 0-55.466667-25.6-59.733333-55.466666 0-29.866667 25.6-55.466667 55.466667-59.733334h17.066666v-17.066666c0-29.866667 25.6-55.466667 59.733334-55.466667 29.866667 0 55.466667 25.6 55.466666 55.466667v17.066666h17.066667c29.866667 0 55.466667 25.6 59.733333 55.466667s-25.6 55.466667-55.466666 59.733333h-17.066667v17.066667c0 29.866667-25.6 55.466667-55.466667 55.466667z" fill="#4F2AB5" p-id="1498"></path><path d="M362.666667 546.133333h-42.666667v-42.666666c0-17.066667-12.8-34.133333-34.133333-34.133334s-29.866667 17.066667-29.866667 34.133334v42.666666H213.333333c-17.066667 0-34.133333 12.8-34.133333 34.133334s12.8 34.133333 34.133333 34.133333h42.666667v42.666667c0 12.8 12.8 25.6 29.866667 25.6s34.133333-12.8 34.133333-34.133334v-42.666666h42.666667c17.066667 0 34.133333-12.8 34.133333-34.133334s-17.066667-25.6-34.133333-25.6z" fill="#6ED6AB" p-id="1499"></path><path d="M439.466667 652.8h42.666666c12.8 0 21.333333 8.533333 21.333334 21.333333s-8.533333 21.333333-21.333334 21.333334h-42.666666c-12.8 0-21.333333-8.533333-21.333334-21.333334s12.8-21.333333 21.333334-21.333333zM541.866667 652.8h42.666666c12.8 0 21.333333 8.533333 21.333334 21.333333s-8.533333 21.333333-21.333334 21.333334h-42.666666c-12.8 0-21.333333-8.533333-21.333334-21.333334s8.533333-21.333333 21.333334-21.333333z" fill="#301196" p-id="1500"></path></svg>