<svg t="1690507028663" class="icon" viewBox="0 0 1024 1024" version="1.1" xmlns="http://www.w3.org/2000/svg" p-id="1298" width="200" height="200"><path d="M472.63 363.19m36 0l0 0q36 0 36 36l0 457.39q0 36-36 36l0 0q-36 0-36-36l0-457.39q0-36 36-36Z" fill="#4F95FC" p-id="1299"></path><path d="M908.05 176.31c-76.1-49.85-171.61-58.76-255.48-23.84-62.11 25.86-111.64 73.18-140.57 132.19-28.93-59-78.47-106.33-140.57-132.19-83.88-34.93-179.38-26.02-255.48 23.84a39.704 39.704 0 0 0-17.81 36.97c1.37 14.72 10.69 27.39 24.34 33.07l240.24 100.04a273.619 273.619 0 0 0-107.76 48.16c-73.01 54.07-114.37 140.62-110.63 231.52 0.61 14.76 9.27 27.88 22.59 34.26a39.822 39.822 0 0 0 17.2 3.91c8.37 0 16.68-2.65 23.68-7.83L512 431.12l304.2 225.29c7 5.18 15.3 7.83 23.68 7.83 5.84 0 11.71-1.29 17.19-3.91a39.706 39.706 0 0 0 22.6-34.26c3.74-90.9-37.61-177.44-110.63-231.52a273.477 273.477 0 0 0-107.76-48.16l240.24-100.04a39.747 39.747 0 0 0 24.34-33.07 39.704 39.704 0 0 0-17.81-36.97z m-564.3 42.63a201.65 201.65 0 0 1 94.54 80.93l-218.57-91.01c40.83-9.67 84.22-6.49 124.04 10.09zM225.5 553.7a201.605 201.605 0 0 1 72.3-101.29 201.633 201.633 0 0 1 117.97-39.62L225.5 553.7z m573 0L608.23 412.79c41.95 0.44 83.31 13.95 117.97 39.62a201.605 201.605 0 0 1 72.3 101.29zM585.71 299.87c21.9-35.79 54.72-64.34 94.54-80.93 24.96-10.39 51.3-15.52 77.55-15.52 15.64 0 31.24 1.82 46.48 5.43l-218.57 91.01z" fill="#474747" p-id="1300"></path></svg>